<?xml version="1.0" encoding="UTF-8"?>
<!DOCTYPE svg PUBLIC "-//W3C//DTD SVG 1.1//EN" "http://www.w3.org/Graphics/SVG/1.1/DTD/svg11.dtd">
<!-- Creator: CorelDRAW X7 -->
<svg xmlns="http://www.w3.org/2000/svg" xml:space="preserve" width="210mm" height="297mm" version="1.1" style="shape-rendering:geometricPrecision; text-rendering:geometricPrecision; image-rendering:optimizeQuality; fill-rule:evenodd; clip-rule:evenodd"
viewBox="0 0 21000 29700"
 xmlns:xlink="http://www.w3.org/1999/xlink">
 <defs>
  <style type="text/css">
   <![CDATA[
    .fil0 {fill:#10355B}
    .fil1 {fill:#6BB2B5}
    .fil2 {fill:#10355B;fill-rule:nonzero}
    .fil3 {fill:#6BB2B5;fill-rule:nonzero}
   ]]>
  </style>
 </defs>
 <g id="Layer_x0020_1">
  <metadata id="CorelCorpID_0Corel-Layer"/>
  <g id="_702415864">
   <path class="fil0" d="M5820 11841l901 0 0 0c157,0 293,97 351,233l0 0 1160 2850 2977 0 0 0c210,0 381,180 381,390 0,197 -149,358 -340,379l-3282 -1 0 0c-149,0 -276,-86 -339,-210l0 0 0 0 -1169 -2872 -640 0 0 -4c-211,0 -381,-171 -381,-381 0,-210 170,-380 381,-380l0 -4z"/>
   <g>
    <path class="fil1" d="M9827 14733l-1087 -2671 0 0c-61,-131 -194,-221 -348,-221 -212,0 -384,172 -384,385 0,41 6,80 18,118l972 2389 829 0z"/>
    <path class="fil1" d="M9798 12037l-534 1312 302 741 -62 73 92 211 83 -5 816 -2012 0 0c15,-41 23,-85 23,-131 0,-213 -172,-385 -384,-385 -144,0 -270,79 -336,196z"/>
    <path class="fil1" d="M9283 13378l0 769 2695 0 0 0c210,0 381,-174 381,-384 0,-210 -171,-385 -381,-385l0 0 -2695 0z"/>
   </g>
   <circle class="fil1" cx="8899" cy="16454" r="481"/>
   <circle class="fil1" cx="10436" cy="16454" r="481"/>
  </g>
  <polygon class="fil2" points="1475,20687 1475,19171 2020,19171 2020,20195 2550,20195 2550,20687 "/>
  <path id="1" class="fil2" d="M3239 20136l227 0 -46 -172c-23,-87 -39,-154 -47,-201 -8,-47 -13,-91 -16,-132l-9 0c-2,41 -7,85 -15,132 -8,47 -24,114 -47,201l-47 172zm-722 551l540 -1516 607 0 530 1516 -586 0 -48 -191 -412 0 -46 191 -585 0z"/>
  <polygon id="2" class="fil2" points="4278,20687 4278,19171 4813,19171 4813,19817 5159,19171 5776,19171 5318,19918 5839,20687 5180,20687 4813,20053 4813,20687 "/>
  <path id="3" class="fil2" d="M5882 19993l0 -822 545 0 0 826c0,96 11,163 34,199 23,36 62,54 117,54 55,0 94,-19 117,-56 24,-37 35,-103 35,-197l0 -826 545 0 0 822c0,108 -7,197 -21,266 -14,70 -37,128 -68,175 -60,95 -143,167 -248,218 -105,50 -225,75 -360,75 -135,0 -255,-25 -360,-75 -105,-51 -188,-123 -249,-218 -30,-46 -52,-104 -66,-173 -14,-68 -21,-158 -21,-268z"/>
  <polygon id="4" class="fil3" points="7558,20687 7558,19171 8092,19171 8092,19817 8438,19171 9055,19171 8597,19918 9119,20687 8459,20687 8092,20053 8092,20687 "/>
  <path id="5" class="fil3" d="M9700 20136l227 0 -47 -172c-23,-87 -38,-154 -47,-201 -8,-47 -13,-91 -15,-132l-9 0c-2,41 -7,85 -16,132 -8,47 -24,114 -47,201l-46 172zm-723 551l541 -1516 606 0 530 1516 -586 0 -48 -191 -411 0 -47 191 -585 0z"/>
  <path id="6" class="fil3" d="M12124 20687l-66 -601c-5,-46 -8,-92 -13,-138 -4,-46 -7,-92 -10,-138 -6,43 -15,89 -26,138 -12,49 -26,101 -43,156l-173 583 -324 0 -174 -583c-17,-55 -32,-107 -43,-156 -11,-49 -19,-95 -26,-138 -3,47 -7,93 -10,139 -4,45 -8,91 -12,137l-67 601 -534 0 259 -1516 562 0 108 375c3,11 9,29 15,52 46,159 74,289 84,391l10 0c8,-64 20,-133 37,-205 16,-73 39,-154 66,-245l113 -368 561 0 240 1516 -534 0z"/>
  <path id="7" class="fil3" d="M12809 20687l0 -1516 651 0c229,0 396,44 502,132 106,89 159,229 159,421 0,179 -47,309 -142,392 -96,82 -247,124 -454,124l-171 0 0 447 -545 0zm547 -1094l0 252 85 0c52,0 92,-11 120,-32 27,-22 41,-53 41,-93 0,-40 -14,-71 -43,-94 -28,-22 -67,-33 -118,-33l-85 0z"/>
  <path id="8" class="fil3" d="M14293 19993l0 -822 545 0 0 826c0,96 12,163 35,199 22,36 61,54 117,54 54,0 93,-19 116,-56 24,-37 36,-103 36,-197l0 -826 545 0 0 822c0,108 -7,197 -22,266 -14,70 -36,128 -67,175 -61,95 -144,167 -249,218 -105,50 -225,75 -359,75 -136,0 -256,-25 -361,-75 -105,-51 -188,-123 -249,-218 -30,-46 -52,-104 -66,-173 -14,-68 -21,-158 -21,-268z"/>
  <path id="9" class="fil3" d="M15831 20558l174 -425c78,55 148,95 209,120 61,25 118,37 171,37 37,0 67,-7 88,-21 22,-14 33,-33 33,-57 0,-42 -54,-74 -161,-97 -35,-7 -61,-13 -81,-17 -113,-28 -200,-77 -260,-147 -60,-71 -90,-158 -90,-263 0,-163 58,-296 175,-398 116,-102 270,-153 459,-153 87,0 172,11 256,34 85,23 170,57 255,104l-165 397c-53,-39 -105,-69 -158,-89 -53,-20 -104,-31 -154,-31 -38,0 -67,7 -88,20 -21,12 -31,30 -31,53 0,43 76,80 227,113 24,5 42,9 56,12 104,24 186,71 246,144 60,72 90,160 90,263 0,168 -60,305 -181,411 -122,106 -279,159 -473,159 -100,0 -199,-14 -299,-42 -99,-28 -199,-71 -298,-127z"/>
 </g>
</svg>
